<?xml version="1.0" standalone="no"?>
<!DOCTYPE svg PUBLIC "-//W3C//DTD SVG 20010904//EN"
 "http://www.w3.org/TR/2001/REC-SVG-20010904/DTD/svg10.dtd">
<svg version="1.0" xmlns="http://www.w3.org/2000/svg"
 width="1845.000000pt" height="1218.000000pt" viewBox="0 0 1845.000000 1218.000000"
 preserveAspectRatio="xMidYMid meet">
<metadata>
Created by potrace 1.10, written by Peter Selinger 2001-2011
</metadata>
<g transform="translate(0.000000,1218.000000) scale(0.100000,-0.100000)"
fill="#fff" stroke="none">
<path d="M10615 11456 c-115 -7 -215 -15 -222 -19 -6 -4 -55 -12 -110 -17 -54
-6 -136 -15 -183 -20 -79 -9 -201 -20 -456 -39 -55 -4 -105 -11 -111 -14 -41
-26 -1219 -50 -2073 -43 -713 6 -780 4 -1520 -33 -80 -4 -151 -11 -159 -15
-16 -10 -99 -21 -307 -40 -82 -8 -161 -19 -175 -25 -13 -5 -71 -24 -129 -41
-58 -18 -109 -36 -115 -40 -5 -5 -53 -25 -105 -45 -52 -21 -115 -51 -141 -66
-25 -16 -49 -29 -52 -29 -3 0 -40 -20 -81 -45 -42 -25 -79 -45 -82 -45 -3 0
-37 -20 -75 -45 -38 -25 -77 -45 -85 -45 -8 0 -24 -4 -34 -10 -10 -5 -71 -23
-135 -40 -64 -16 -131 -37 -149 -45 -39 -20 -189 -74 -236 -85 -19 -4 -71 -20
-115 -34 -44 -14 -92 -26 -107 -26 -15 0 -39 -5 -55 -11 -34 -14 -75 -24 -208
-50 -176 -35 -168 -35 -216 -2 -114 75 -169 81 -274 28 -38 -20 -91 -51 -117
-69 -41 -29 -57 -34 -132 -41 -96 -8 -177 0 -218 21 -34 18 -66 63 -75 106
-12 62 -40 113 -86 156 -26 23 -51 42 -56 42 -13 0 -80 57 -124 106 -45 51
-97 186 -97 254 0 26 -3 50 -6 53 -14 13 -44 -15 -66 -61 -19 -41 -23 -63 -23
-167 l0 -120 -60 -7 c-66 -7 -207 -55 -272 -93 -23 -14 -49 -25 -58 -25 -24 0
-106 88 -135 143 -14 27 -31 58 -37 70 -7 12 -13 31 -13 42 0 11 -7 38 -14 60
-11 31 -19 40 -38 40 -21 0 -24 -7 -37 -72 -26 -128 8 -221 127 -354 63 -70
73 -85 67 -108 -9 -35 -35 -90 -58 -122 -10 -14 -24 -41 -30 -60 -15 -43 -106
-167 -128 -174 -25 -8 -194 -187 -215 -226 -12 -22 -20 -67 -25 -129 -3 -52
-16 -138 -28 -190 -21 -95 -21 -95 -85 -155 -35 -33 -72 -73 -82 -90 -57 -93
-264 -341 -341 -410 -71 -63 -117 -144 -107 -188 4 -17 8 -71 8 -118 1 -85 1
-86 41 -133 22 -26 54 -71 70 -99 24 -42 42 -58 89 -82 33 -17 62 -40 67 -52
10 -27 45 -51 86 -59 18 -3 36 -10 39 -15 3 -5 40 -9 82 -9 97 0 165 24 208
74 28 32 36 36 80 36 27 0 112 7 189 16 77 9 181 19 230 23 50 4 101 12 115
18 30 13 107 30 175 39 28 3 60 12 72 20 28 18 48 18 116 0 32 -8 162 -19 308
-26 186 -9 262 -16 284 -27 17 -9 46 -19 65 -24 59 -13 142 -45 217 -83 39
-20 74 -36 78 -36 4 0 24 -12 44 -27 20 -16 44 -32 53 -38 52 -31 189 -130
209 -151 12 -13 27 -24 32 -24 5 0 21 -11 35 -24 15 -13 64 -56 108 -95 94
-82 106 -97 134 -181 21 -62 73 -164 97 -188 7 -7 13 -18 13 -23 0 -20 147
-157 225 -209 12 -8 57 -39 101 -69 43 -29 117 -74 164 -99 47 -24 108 -57
135 -72 28 -14 68 -39 91 -56 92 -65 192 -143 199 -153 11 -18 111 -79 172
-105 32 -13 72 -31 88 -40 17 -9 36 -16 44 -16 8 0 28 -4 45 -9 101 -31 141
-41 165 -41 37 0 67 -36 76 -90 7 -48 27 -125 44 -175 5 -16 15 -61 20 -100
35 -230 45 -309 51 -385 4 -47 15 -103 25 -125 10 -22 25 -67 35 -100 10 -33
30 -89 45 -125 44 -101 55 -170 44 -270 -5 -47 -9 -148 -9 -225 0 -132 -14
-246 -38 -325 -24 -79 -32 -135 -33 -223 -1 -142 -12 -206 -37 -226 -39 -30
-151 -173 -157 -201 -6 -25 -81 -109 -184 -203 -32 -30 -41 -45 -41 -72 0 -84
30 -98 220 -99 94 0 159 4 185 12 22 7 69 18 105 23 143 20 169 26 192 41 23
15 53 25 130 42 17 4 34 18 43 35 11 22 23 30 52 34 34 4 89 21 164 49 26 9
62 70 90 150 12 34 11 40 -14 75 -15 22 -27 46 -27 55 0 9 26 33 58 54 31 21
60 42 64 47 17 26 18 134 2 363 -17 266 -15 401 11 684 16 166 27 223 50 250
7 8 22 44 34 80 12 36 26 74 30 85 23 52 34 124 42 285 4 96 13 207 19 245 6
39 14 162 19 275 14 316 32 534 44 548 14 17 64 43 102 53 17 4 50 15 75 24
60 22 382 22 560 -1 69 -8 159 -19 200 -23 41 -5 102 -13 135 -19 58 -11 133
-21 320 -42 198 -22 262 -31 300 -41 22 -6 65 -14 95 -18 36 -4 67 -15 90 -32
28 -22 60 -30 171 -48 75 -11 153 -21 174 -21 35 0 105 31 145 65 32 27 272
155 291 155 5 0 38 13 72 30 35 16 70 30 78 30 8 0 19 4 25 9 5 5 34 19 64 31
30 12 82 34 115 50 33 16 94 43 135 61 41 17 102 44 135 60 33 15 76 35 97 43
47 21 167 21 194 1 10 -8 27 -15 37 -15 22 0 130 -36 160 -53 12 -7 51 -37 88
-69 37 -31 76 -59 88 -63 25 -8 38 -48 46 -145 7 -87 11 -95 47 -109 22 -8 31
-6 52 10 14 11 26 26 26 34 0 13 19 82 46 165 8 25 14 60 14 78 0 29 3 33 23
30 19 -3 23 -11 28 -63 4 -33 7 -89 8 -125 1 -79 19 -110 61 -110 36 0 55 27
65 90 16 110 45 199 69 216 43 30 61 19 129 -78 36 -51 76 -106 89 -123 13
-16 42 -60 63 -97 22 -38 42 -68 46 -68 4 0 18 -20 30 -45 12 -25 26 -45 29
-45 4 0 20 -23 36 -51 37 -64 39 -68 99 -159 49 -74 81 -125 140 -229 17 -29
45 -78 63 -109 18 -31 42 -84 53 -117 11 -33 25 -69 31 -80 12 -21 18 -45 42
-177 8 -43 20 -86 25 -97 6 -11 11 -33 11 -50 0 -16 4 -41 10 -55 5 -14 10
-44 10 -68 1 -24 6 -119 12 -211 13 -235 -11 -611 -47 -722 -7 -22 -21 -83
-30 -135 -14 -85 -32 -144 -55 -190 -4 -9 -11 -34 -14 -55 -5 -29 -28 -66 -78
-130 -106 -136 -136 -186 -144 -243 -6 -47 -13 -57 -85 -130 -44 -43 -79 -85
-79 -93 0 -30 39 -57 97 -69 32 -6 79 -17 105 -25 122 -37 277 -42 484 -16
133 17 152 27 190 102 45 87 52 135 25 187 l-21 42 22 22 c13 13 23 36 24 55
1 35 25 62 56 63 26 0 33 21 13 36 -22 16 -13 44 15 44 26 0 25 12 -3 47 -53
63 -42 105 33 124 53 14 69 42 30 54 -34 11 -24 43 18 61 l37 16 -47 24 c-31
15 -49 32 -52 47 -3 12 -7 126 -10 252 -8 355 16 978 39 1015 4 6 11 36 16 66
5 30 13 78 18 108 10 62 50 184 62 192 5 3 9 15 9 28 0 12 8 49 19 82 31 100
41 152 41 217 0 55 -4 69 -36 117 -20 30 -39 57 -43 60 -35 25 -87 128 -110
220 -7 25 -20 74 -31 110 -37 131 -43 157 -53 235 -5 44 -10 114 -10 155 0 90
19 355 28 390 3 14 10 66 14 115 8 83 27 206 52 345 9 49 27 119 49 190 4 14
13 52 20 85 7 33 15 65 19 70 8 10 25 65 62 195 12 41 25 79 30 85 5 5 9 18 9
30 0 11 6 29 13 40 16 24 47 106 47 124 0 7 14 42 30 78 17 35 30 69 30 75 0
6 13 41 29 77 16 36 44 104 62 151 17 47 42 108 54 135 12 28 28 63 34 80 12
28 14 28 26 12 20 -27 33 -124 45 -314 13 -219 13 -348 -1 -415 -14 -71 -50
-191 -60 -202 -5 -6 -9 -18 -9 -27 0 -10 -11 -31 -25 -47 -34 -40 -91 -196
-125 -342 -9 -37 -15 -130 -29 -442 -5 -102 -12 -191 -16 -198 -8 -13 -16 -86
-35 -330 -9 -107 -9 -198 -1 -345 11 -212 18 -260 48 -340 15 -39 25 -52 48
-59 49 -14 59 -21 74 -52 34 -71 71 -83 97 -31 29 57 33 59 70 37 42 -26 70
-19 124 30 l41 38 -4 104 c-3 56 -14 146 -25 198 -12 52 -26 117 -31 143 -6
27 -14 54 -18 60 -7 12 -12 41 -32 178 -6 36 -17 99 -26 140 -8 41 -15 91 -15
112 0 21 -5 47 -11 58 -6 11 -16 43 -23 70 -12 46 -12 51 10 81 21 28 24 43
24 122 0 90 1 92 39 148 22 31 43 74 47 95 4 21 11 44 17 51 11 14 32 116 46
228 5 34 11 66 14 71 6 10 23 243 48 681 8 129 8 217 0 300 -19 208 -41 352
-61 395 -11 23 -26 69 -34 102 -7 33 -21 80 -31 105 -17 46 -26 80 -44 160 -5
25 -17 65 -25 89 -9 24 -16 52 -16 62 0 11 -10 36 -23 57 -13 20 -29 53 -36
72 -22 65 -179 320 -221 360 -38 36 -119 101 -155 125 -30 19 -43 26 -145 73
-25 12 -83 33 -130 47 -47 14 -98 29 -115 35 -16 5 -64 14 -105 20 -85 11
-153 25 -224 46 -26 8 -72 14 -100 14 -50 0 -239 25 -281 36 -11 4 -36 21 -55
39 -19 18 -64 49 -100 68 -60 33 -75 36 -199 46 -74 6 -151 10 -170 10 -20 -1
-130 -7 -246 -13z"/>
</g>
</svg>
